<?xml version="1.0" encoding="utf-8"?>
<svg xmlns="http://www.w3.org/2000/svg" viewBox="0 0 457.92 92.08" width="457.92" height="92.08" role="img" aria-label="Wardnet logo">
  <g transform="matrix(1, 0, 0, 1, -17.674242, -13.964001)">
    <g transform="matrix(1, 0, 0, 1, 6.209732, 9.500001)">
      <g fill="none" stroke="#12B981" stroke-width="7" stroke-linejoin="round" stroke-linecap="round">
        <path d="M50 8 L85 21 V50 C85 71 69 86 50 93 C31 86 15 71 15 50 V21 Z"/>
        <path stroke-width="6" d="M29 37 L40.5 63 L50 46 L59.5 63 L71 37"/>
      </g>
      <g fill="#12B981">
        <circle cx="28" cy="34" r="4.8"/>
        <circle cx="40.5" cy="63" r="4.8"/>
        <circle cx="50" cy="46" r="4.8"/>
        <circle cx="59.5" cy="63" r="4.8"/>
        <circle cx="71" cy="37" r="4.8"/>
      </g>
    </g>
    <g>
      <text font-family="Archivo, sans-serif" font-weight="800" font-size="70" letter-spacing="-2" style="white-space: pre; stroke-width: 1;" y="74.207" x="115"><tspan fill="#11152B" style="font-size: 70px; word-spacing: 0px; letter-spacing: -2px; stroke-width: 1;">WARD</tspan><tspan fill="#12B981" style="font-size: 70px; word-spacing: 0px; letter-spacing: -2px; stroke-width: 1;">NET</tspan></text>
      <text x="115" y="102.207" font-family="Hanken Grotesk, sans-serif" font-weight="500" font-size="22" textLength="360" lengthAdjust="spacing" fill="#8A90A6" style="white-space: pre; stroke-width: 1; font-size: 22px;">Your network. Your rules.</text>
    </g>
  </g>
</svg>