<?xml version="1.0" encoding="utf-8"?>
<svg xmlns="http://www.w3.org/2000/svg" viewBox="0 0 457.92 92.08" width="457.92" height="92.08" role="img" aria-label="Wardnet logo">
  <g transform="matrix(1, 0, 0, 1, -17.674242, -13.964001)">
    <g transform="matrix(1, 0, 0, 1, 6.209732, 9.500001)">
      <g fill="none" stroke="#12B981" stroke-width="7" stroke-linejoin="round" stroke-linecap="round">
        <path d="M50 8 L85 21 V50 C85 71 69 86 50 93 C31 86 15 71 15 50 V21 Z"/>
        <path stroke-width="6" d="M29 37 L40.5 63 L50 46 L59.5 63 L71 37"/>
      </g>
      <g fill="#12B981">
        <circle cx="28" cy="34" r="4.8"/>
        <circle cx="40.5" cy="63" r="4.8"/>
        <circle cx="50" cy="46" r="4.8"/>
        <circle cx="59.5" cy="63" r="4.8"/>
        <circle cx="71" cy="37" r="4.8"/>
      </g>
    </g>
    <g>
      <path fill="#FFFFFF" d="M141.81 74.21L127.60 74.21L115.49 26.12L128.65 26.12L134.53 51.39Q134.67 52.02 134.88 53.21Q135.09 54.40 135.34 55.73Q135.58 57.06 135.79 58.18L135.79 58.18L136.07 58.18Q136.21 57.48 136.35 56.53Q136.49 55.59 136.66 54.64Q136.84 53.70 137.01 52.86Q137.19 52.02 137.26 51.39L137.26 51.39L142.79 26.12L156.44 26.12L162.11 51.39Q162.32 52.09 162.53 53.28Q162.74 54.47 162.99 55.80Q163.23 57.13 163.44 58.18L163.44 58.18L163.72 58.18Q163.86 57.41 164.03 56.53Q164.21 55.66 164.38 54.71Q164.56 53.77 164.74 52.93Q164.91 52.09 165.05 51.39L165.05 51.39L170.72 26.12L183.04 26.12L170.93 74.21L156.93 74.21L150.77 47.61Q150.63 46.63 150.35 45.37Q150.07 44.11 149.82 42.85Q149.58 41.59 149.44 40.61L149.44 40.61L149.16 40.61Q149.02 41.59 148.81 42.85Q148.60 44.11 148.36 45.37Q148.11 46.63 147.90 47.61L147.90 47.61L141.81 74.21Z M191.96 74.21L179.08 74.21L197.14 26.12L212.19 26.12L230.25 74.21L216.88 74.21L214.01 65.88L194.83 65.88L191.96 74.21ZM201.34 46.35L197.84 56.50L210.93 56.50L207.50 46.35Q207.22 45.58 206.84 44.42Q206.45 43.27 206.06 41.97Q205.68 40.68 205.33 39.35Q204.98 38.02 204.63 37.04L204.63 37.04L204.14 37.04Q203.86 38.37 203.34 40.05Q202.81 41.73 202.29 43.41Q201.76 45.09 201.34 46.35L201.34 46.35Z M246.52 74.21L233.99 74.21L233.99 26.12L261.92 26.12Q267.24 26.12 270.81 28.11Q274.38 30.11 276.17 33.57Q277.95 37.04 277.95 41.31L277.95 41.31Q277.95 45.93 275.81 49.53Q273.68 53.14 269.83 55.17L269.83 55.17L279.49 74.21L265.49 74.21L257.51 57.27L246.52 57.27L246.52 74.21ZM246.52 35.64L246.52 47.96L259.47 47.96Q262.06 47.96 263.63 46.24Q265.21 44.53 265.21 41.66L265.21 41.66Q265.21 39.77 264.51 38.44Q263.81 37.11 262.55 36.37Q261.29 35.64 259.47 35.64L259.47 35.64L246.52 35.64Z M304.58 74.21L284.49 74.21L284.49 26.12L304.58 26.12Q312.42 26.12 317.85 28.71Q323.27 31.30 326.11 36.58Q328.94 41.87 328.94 50.13L328.94 50.13Q328.94 58.32 326.11 63.67Q323.27 69.03 317.85 71.62Q312.42 74.21 304.58 74.21L304.58 74.21ZM297.02 35.92L297.02 64.41L304.44 64.41Q307.38 64.41 309.55 63.57Q311.72 62.73 313.19 61.12Q314.66 59.51 315.36 57.13Q316.06 54.75 316.06 51.67L316.06 51.67L316.06 48.73Q316.06 45.58 315.36 43.20Q314.66 40.82 313.19 39.21Q311.72 37.60 309.55 36.76Q307.38 35.92 304.44 35.92L304.44 35.92L297.02 35.92Z"/><path fill="#12B981" d="M346.96 74.21L335.34 74.21L335.34 26.12L346.47 26.12L363.97 48.45Q364.46 49.01 365.27 50.06Q366.07 51.11 366.84 52.19Q367.61 53.28 367.96 53.91L367.96 53.91L368.31 53.84Q368.31 52.30 368.31 50.86Q368.31 49.43 368.31 48.45L368.31 48.45L368.31 26.12L379.93 26.12L379.93 74.21L368.87 74.21L350.32 50.69Q349.41 49.57 348.61 48.38Q347.80 47.19 347.31 46.42L347.31 46.42L346.96 46.49Q346.96 47.61 346.96 48.76Q346.96 49.92 346.96 50.69L346.96 50.69L346.96 74.21Z M428.75 74.21L388.57 74.21L388.57 26.12L428.26 26.12L428.26 35.92L401.10 35.92L401.10 44.95L424.83 44.95L424.83 54.54L401.10 54.54L401.10 64.41L428.75 64.41L428.75 74.21Z M459.93 74.21L447.40 74.21L447.40 36.41L431.79 36.41L431.79 26.12L475.54 26.12L475.54 36.41L459.93 36.41L459.93 74.21Z"/>
      <path fill="#7E859B" d="M122.85 102.21L120.61 102.21L120.61 96.27L115.20 86.87L117.75 86.87L121.67 94.02L125.67 86.87L128.20 86.87L122.85 96.27L122.85 102.21Z M137.52 102.40L137.52 102.40Q135.98 102.40 134.77 101.68Q133.56 100.95 132.86 99.68Q132.17 98.40 132.17 96.77L132.17 96.77Q132.17 95.14 132.85 93.88Q133.53 92.61 134.75 91.89Q135.98 91.16 137.52 91.16L137.52 91.16Q139.08 91.16 140.27 91.89Q141.45 92.61 142.15 93.88Q142.84 95.14 142.84 96.77L142.84 96.77Q142.84 98.40 142.15 99.67Q141.45 100.93 140.25 101.67Q139.06 102.40 137.52 102.40ZM137.52 100.49L137.52 100.49Q138.48 100.49 139.20 100.03Q139.91 99.57 140.30 98.73Q140.68 97.89 140.68 96.77L140.68 96.77Q140.68 95.63 140.30 94.79Q139.91 93.96 139.20 93.51Q138.48 93.05 137.52 93.05L137.52 93.05Q136.53 93.05 135.81 93.52Q135.10 93.98 134.71 94.80Q134.33 95.63 134.33 96.77L134.33 96.77Q134.33 97.89 134.71 98.73Q135.10 99.57 135.81 100.03Q136.53 100.49 137.52 100.49Z M153.63 102.40L153.63 102.40Q152.42 102.40 151.55 101.91Q150.68 101.41 150.23 100.48Q149.78 99.54 149.78 98.20L149.78 98.20L149.78 91.36L151.94 91.36L151.94 97.52Q151.94 98.49 152.18 99.16Q152.42 99.83 152.94 100.17Q153.45 100.51 154.25 100.51L154.25 100.51Q155.17 100.51 155.75 100.05Q156.34 99.59 156.62 98.68Q156.91 97.76 156.91 96.40L156.91 96.40L156.91 91.36L159.04 91.36L159.04 102.21L156.91 102.21L156.91 99.88L157.35 99.96Q156.86 101.17 155.87 101.79Q154.88 102.40 153.63 102.40Z M168.84 102.21L166.66 102.21L166.66 91.36L168.84 91.36L168.84 94.29L168.38 94.38Q168.49 93.41 169.05 92.69Q169.61 91.98 170.38 91.57Q171.15 91.16 171.90 91.16L171.90 91.16Q172.43 91.16 172.90 91.28Q173.37 91.41 173.86 91.69L173.86 91.69L172.80 93.63Q172.56 93.49 172.19 93.41Q171.81 93.32 171.48 93.32L171.48 93.32Q170.98 93.32 170.49 93.49Q170.01 93.67 169.62 94.07Q169.24 94.46 169.04 95.10L169.04 95.10Q168.95 95.41 168.90 95.90Q168.84 96.40 168.84 97.26L168.84 97.26L168.84 102.21Z  M192.82 102.21L190.64 102.21L190.64 91.36L192.82 91.36L192.82 93.71L192.38 93.85Q192.66 92.94 193.20 92.36Q193.74 91.78 194.48 91.47Q195.22 91.16 196.07 91.16L196.07 91.16Q197.88 91.16 198.90 92.21Q199.92 93.25 199.92 95.25L199.92 95.25L199.92 102.21L197.77 102.21L197.77 96.05Q197.77 94.48 197.21 93.76Q196.65 93.03 195.48 93.03L195.48 93.03Q194.60 93.03 194.02 93.43Q193.43 93.82 193.13 94.68Q192.82 95.54 192.82 96.86L192.82 96.86L192.82 102.21Z M212.06 102.40L212.06 102.40Q210.74 102.40 209.77 101.96Q208.80 101.52 208.16 100.74Q207.52 99.96 207.21 98.96Q206.89 97.96 206.89 96.86L206.89 96.86Q206.89 95.76 207.19 94.74Q207.50 93.71 208.12 92.91Q208.73 92.11 209.67 91.64Q210.60 91.16 211.88 91.16L211.88 91.16Q213.16 91.16 214.08 91.59Q215.00 92.02 215.60 92.78Q216.19 93.54 216.49 94.48Q216.79 95.43 216.79 96.49L216.79 96.49Q216.79 96.60 216.78 96.89Q216.76 97.19 216.72 97.45L216.72 97.45L209.04 97.45Q209.11 98.91 209.93 99.69Q210.76 100.47 212.12 100.47L212.12 100.47Q213.05 100.47 213.77 100.17Q214.50 99.88 215.11 99.24L215.11 99.24L216.43 100.60Q215.80 101.24 215.13 101.63Q214.45 102.03 213.72 102.22Q212.98 102.40 212.06 102.40ZM215.36 95.87L214.65 96.38Q214.70 96.20 214.71 96.02Q214.72 95.85 214.72 95.67L214.72 95.67Q214.72 95.17 214.54 94.68Q214.37 94.20 214.01 93.81Q213.66 93.43 213.15 93.20Q212.63 92.97 211.95 92.97L211.95 92.97Q211.04 92.97 210.41 93.37Q209.77 93.78 209.43 94.44Q209.09 95.10 209.02 95.87L209.02 95.87L215.36 95.87Z M227.55 102.40L227.55 102.40Q226.76 102.40 226.09 102.10Q225.42 101.79 225.04 101.10Q224.65 100.40 224.65 99.30L224.65 99.30L224.65 88.59L226.83 87.38L226.83 98.73Q226.83 99.63 227.10 100.13Q227.38 100.62 228.13 100.62L228.13 100.62Q228.35 100.62 228.64 100.57Q228.94 100.51 229.29 100.42L229.29 100.42L229.29 102.10Q228.85 102.25 228.41 102.33Q227.97 102.40 227.55 102.40ZM229.29 93.03L222.49 93.03L222.49 91.36L229.29 91.36L229.29 93.03Z M240.41 102.21L238.43 102.21L235.18 91.36L237.46 91.36L239.53 98.93L241.93 91.36L243.80 91.36L246.20 98.88L248.29 91.36L250.58 91.36L247.30 102.21L245.34 102.21L242.88 94.38L240.41 102.21Z M262.00 102.40L262.00 102.40Q260.46 102.40 259.25 101.68Q258.04 100.95 257.35 99.68Q256.66 98.40 256.66 96.77L256.66 96.77Q256.66 95.14 257.34 93.88Q258.02 92.61 259.24 91.89Q260.46 91.16 262.00 91.16L262.00 91.16Q263.57 91.16 264.75 91.89Q265.94 92.61 266.63 93.88Q267.33 95.14 267.33 96.77L267.33 96.77Q267.33 98.40 266.63 99.67Q265.94 100.93 264.74 101.67Q263.54 102.40 262.00 102.40ZM262.00 100.49L262.00 100.49Q262.97 100.49 263.69 100.03Q264.40 99.57 264.79 98.73Q265.17 97.89 265.17 96.77L265.17 96.77Q265.17 95.63 264.79 94.79Q264.40 93.96 263.69 93.51Q262.97 93.05 262.00 93.05L262.00 93.05Q261.01 93.05 260.30 93.52Q259.58 93.98 259.20 94.80Q258.81 95.63 258.81 96.77L258.81 96.77Q258.81 97.89 259.20 98.73Q259.58 99.57 260.30 100.03Q261.01 100.49 262.00 100.49Z M276.58 102.21L274.40 102.21L274.40 91.36L276.58 91.36L276.58 94.29L276.12 94.38Q276.23 93.41 276.79 92.69Q277.35 91.98 278.12 91.57Q278.89 91.16 279.64 91.16L279.64 91.16Q280.16 91.16 280.64 91.28Q281.11 91.41 281.59 91.69L281.59 91.69L280.54 93.63Q280.30 93.49 279.92 93.41Q279.55 93.32 279.22 93.32L279.22 93.32Q278.71 93.32 278.23 93.49Q277.74 93.67 277.36 94.07Q276.97 94.46 276.78 95.10L276.78 95.10Q276.69 95.41 276.63 95.90Q276.58 96.40 276.58 97.26L276.58 97.26L276.58 102.21Z M298.02 102.21L295.46 102.21L292.01 96.84L290.01 98.99L290.01 96.24L294.74 91.36L297.49 91.36L293.57 95.39L298.02 102.21ZM290.25 102.21L288.07 102.21L288.07 86.87L290.25 86.87L290.25 102.21Z M306.91 102.21L304.49 102.21L304.49 99.54L306.91 99.54L306.91 102.21Z  M331.09 102.21L328.84 102.21L328.84 96.27L323.43 86.87L325.98 86.87L329.90 94.02L333.90 86.87L336.43 86.87L331.09 96.27L331.09 102.21Z M345.75 102.40L345.75 102.40Q344.21 102.40 343.00 101.68Q341.79 100.95 341.10 99.68Q340.40 98.40 340.40 96.77L340.40 96.77Q340.40 95.14 341.09 93.88Q341.77 92.61 342.99 91.89Q344.21 91.16 345.75 91.16L345.75 91.16Q347.31 91.16 348.50 91.89Q349.69 92.61 350.38 93.88Q351.07 95.14 351.07 96.77L351.07 96.77Q351.07 98.40 350.38 99.67Q349.69 100.93 348.49 101.67Q347.29 102.40 345.75 102.40ZM345.75 100.49L345.75 100.49Q346.72 100.49 347.43 100.03Q348.15 99.57 348.53 98.73Q348.92 97.89 348.92 96.77L348.92 96.77Q348.92 95.63 348.53 94.79Q348.15 93.96 347.43 93.51Q346.72 93.05 345.75 93.05L345.75 93.05Q344.76 93.05 344.05 93.52Q343.33 93.98 342.95 94.80Q342.56 95.63 342.56 96.77L342.56 96.77Q342.56 97.89 342.95 98.73Q343.33 99.57 344.05 100.03Q344.76 100.49 345.75 100.49Z M361.86 102.40L361.86 102.40Q360.65 102.40 359.78 101.91Q358.92 101.41 358.46 100.48Q358.01 99.54 358.01 98.20L358.01 98.20L358.01 91.36L360.17 91.36L360.17 97.52Q360.17 98.49 360.41 99.16Q360.65 99.83 361.17 100.17Q361.69 100.51 362.48 100.51L362.48 100.51Q363.40 100.51 363.99 100.05Q364.57 99.59 364.86 98.68Q365.14 97.76 365.14 96.40L365.14 96.40L365.14 91.36L367.28 91.36L367.28 102.21L365.14 102.21L365.14 99.88L365.58 99.96Q365.10 101.17 364.11 101.79Q363.12 102.40 361.86 102.40Z M377.08 102.21L374.90 102.21L374.90 91.36L377.08 91.36L377.08 94.29L376.61 94.38Q376.72 93.41 377.28 92.69Q377.85 91.98 378.62 91.57Q379.39 91.16 380.13 91.16L380.13 91.16Q380.66 91.16 381.13 91.28Q381.61 91.41 382.09 91.69L382.09 91.69L381.04 93.63Q380.79 93.49 380.42 93.41Q380.05 93.32 379.72 93.32L379.72 93.32Q379.21 93.32 378.73 93.49Q378.24 93.67 377.86 94.07Q377.47 94.46 377.27 95.10L377.27 95.10Q377.19 95.41 377.13 95.90Q377.08 96.40 377.08 97.26L377.08 97.26L377.08 102.21Z  M401.05 102.21L398.88 102.21L398.88 91.36L401.05 91.36L401.05 94.29L400.59 94.38Q400.70 93.41 401.26 92.69Q401.82 91.98 402.59 91.57Q403.36 91.16 404.11 91.16L404.11 91.16Q404.64 91.16 405.11 91.28Q405.59 91.41 406.07 91.69L406.07 91.69L405.01 93.63Q404.77 93.49 404.40 93.41Q404.02 93.32 403.69 93.32L403.69 93.32Q403.19 93.32 402.70 93.49Q402.22 93.67 401.83 94.07Q401.45 94.46 401.25 95.10L401.25 95.10Q401.16 95.41 401.11 95.90Q401.05 96.40 401.05 97.26L401.05 97.26L401.05 102.21Z M416.26 102.40L416.26 102.40Q415.05 102.40 414.19 101.91Q413.32 101.41 412.87 100.48Q412.41 99.54 412.41 98.20L412.41 98.20L412.41 91.36L414.57 91.36L414.57 97.52Q414.57 98.49 414.81 99.16Q415.05 99.83 415.57 100.17Q416.09 100.51 416.88 100.51L416.88 100.51Q417.80 100.51 418.39 100.05Q418.97 99.59 419.26 98.68Q419.54 97.76 419.54 96.40L419.54 96.40L419.54 91.36L421.68 91.36L421.68 102.21L419.54 102.21L419.54 99.88L419.98 99.96Q419.50 101.17 418.51 101.79Q417.52 102.40 416.26 102.40Z M431.61 102.40L431.61 102.40Q430.57 102.40 429.91 101.77Q429.25 101.13 429.25 99.74L429.25 99.74L429.25 86.87L431.39 86.87L431.39 99.32Q431.39 99.90 431.64 100.15Q431.89 100.40 432.31 100.40L432.31 100.40Q432.49 100.40 432.72 100.37Q432.95 100.34 433.19 100.25L433.19 100.25L433.19 102.07Q432.80 102.25 432.37 102.33Q431.94 102.40 431.61 102.40Z M444.47 102.40L444.47 102.40Q443.15 102.40 442.18 101.96Q441.21 101.52 440.57 100.74Q439.93 99.96 439.62 98.96Q439.30 97.96 439.30 96.86L439.30 96.86Q439.30 95.76 439.60 94.74Q439.91 93.71 440.53 92.91Q441.14 92.11 442.08 91.64Q443.01 91.16 444.29 91.16L444.29 91.16Q445.57 91.16 446.49 91.59Q447.41 92.02 448.01 92.78Q448.60 93.54 448.90 94.48Q449.20 95.43 449.20 96.49L449.20 96.49Q449.20 96.60 449.19 96.89Q449.17 97.19 449.13 97.45L449.13 97.45L441.45 97.45Q441.52 98.91 442.34 99.69Q443.17 100.47 444.53 100.47L444.53 100.47Q445.46 100.47 446.18 100.17Q446.91 99.88 447.52 99.24L447.52 99.24L448.84 100.60Q448.21 101.24 447.54 101.63Q446.86 102.03 446.13 102.22Q445.39 102.40 444.47 102.40ZM447.77 95.87L447.06 96.38Q447.11 96.20 447.12 96.02Q447.13 95.85 447.13 95.67L447.13 95.67Q447.13 95.17 446.95 94.68Q446.78 94.20 446.42 93.81Q446.07 93.43 445.56 93.20Q445.04 92.97 444.36 92.97L444.36 92.97Q443.45 92.97 442.82 93.37Q442.18 93.78 441.84 94.44Q441.50 95.10 441.43 95.87L441.43 95.87L447.77 95.87Z M459.92 102.40L459.92 102.40Q458.78 102.40 457.90 102.06Q457.02 101.72 456.39 101.18Q455.76 100.64 455.39 100.07L455.39 100.07L456.86 98.80Q457.28 99.54 458.06 100.08Q458.84 100.62 459.94 100.62L459.94 100.62Q460.91 100.62 461.47 100.22Q462.03 99.81 462.03 99.15L462.03 99.15Q462.03 98.62 461.68 98.30Q461.33 97.98 460.76 97.77Q460.18 97.56 459.50 97.41L459.50 97.41Q458.89 97.23 458.25 97.02Q457.61 96.79 457.09 96.45Q456.58 96.11 456.26 95.57Q455.94 95.03 455.94 94.24L455.94 94.24Q455.94 92.86 457.01 92.01Q458.07 91.16 459.83 91.16L459.83 91.16Q461.09 91.16 462.12 91.68Q463.15 92.20 463.73 93.21L463.73 93.21L462.38 94.24Q461.94 93.52 461.25 93.19Q460.56 92.86 459.74 92.86L459.74 92.86Q458.97 92.86 458.46 93.18Q457.94 93.49 457.94 94.04L457.94 94.04Q457.94 94.44 458.17 94.69Q458.40 94.95 458.90 95.13Q459.39 95.32 460.12 95.50L460.12 95.50Q460.80 95.65 461.50 95.87Q462.21 96.09 462.80 96.44Q463.40 96.79 463.77 97.39Q464.14 97.98 464.14 98.93L464.14 98.93Q464.14 99.96 463.62 100.74Q463.09 101.52 462.14 101.96Q461.20 102.40 459.92 102.40Z M473.57 102.21L471.15 102.21L471.15 99.54L473.57 99.54L473.57 102.21Z"/>
    </g>
  </g>
</svg>