<?xml version="1.0" encoding="utf-8"?>
<svg xmlns="http://www.w3.org/2000/svg" viewBox="0 0 484.56 92.08" width="484.56" height="92.08" role="img" aria-label="Wardnet logo">
  <g transform="matrix(1, 0, 0, 1, -17.674242, -13.964001)">
    <g transform="matrix(1, 0, 0, 1, 6.209732, 9.500001)">
      <g fill="none" stroke="#12B981" stroke-width="7" stroke-linejoin="round" stroke-linecap="round">
        <path d="M50 8 L85 21 V50 C85 71 69 86 50 93 C31 86 15 71 15 50 V21 Z"/>
        <path stroke-width="6" d="M29 37 L40.5 63 L50 46 L59.5 63 L71 37"/>
      </g>
      <g fill="#12B981">
        <circle cx="28" cy="34" r="4.8"/>
        <circle cx="40.5" cy="63" r="4.8"/>
        <circle cx="50" cy="46" r="4.8"/>
        <circle cx="59.5" cy="63" r="4.8"/>
        <circle cx="71" cy="37" r="4.8"/>
      </g>
    </g>
    <g>
      <path fill="#11152B" d="M143.72 85.06L128.50 85.06L115.53 33.54L129.63 33.54L135.93 60.61Q136.07 61.29 136.30 62.56Q136.53 63.84 136.79 65.26Q137.05 66.69 137.28 67.89L137.28 67.89L137.57 67.89Q137.72 67.14 137.88 66.12Q138.03 65.11 138.21 64.10Q138.40 63.09 138.59 62.19Q138.78 61.29 138.85 60.61L138.85 60.61L144.78 33.54L159.40 33.54L165.47 60.61Q165.70 61.36 165.93 62.64Q166.15 63.91 166.41 65.34Q166.68 66.76 166.90 67.89L166.90 67.89L167.20 67.89Q167.35 67.06 167.54 66.12Q167.72 65.19 167.91 64.17Q168.10 63.16 168.29 62.26Q168.47 61.36 168.63 60.61L168.63 60.61L174.70 33.54L187.90 33.54L174.93 85.06L159.93 85.06L153.32 56.56Q153.18 55.51 152.88 54.16Q152.57 52.81 152.31 51.46Q152.05 50.11 151.90 49.06L151.90 49.06L151.60 49.06Q151.45 50.11 151.22 51.46Q151 52.81 150.74 54.16Q150.47 55.51 150.25 56.56L150.25 56.56L143.72 85.06Z M197.60 85.06L183.80 85.06L203.15 33.54L219.28 33.54L238.63 85.06L224.30 85.06L221.23 76.14L200.68 76.14L197.60 85.06ZM207.65 55.21L203.90 66.09L217.93 66.09L214.25 55.21Q213.95 54.39 213.54 53.15Q213.13 51.91 212.71 50.52Q212.30 49.14 211.93 47.71Q211.55 46.29 211.18 45.24L211.18 45.24L210.65 45.24Q210.35 46.66 209.79 48.46Q209.23 50.26 208.66 52.06Q208.10 53.86 207.65 55.21L207.65 55.21Z M256.20 85.06L242.78 85.06L242.78 33.54L272.70 33.54Q278.40 33.54 282.23 35.67Q286.05 37.81 287.96 41.52Q289.88 45.24 289.88 49.81L289.88 49.81Q289.88 54.76 287.59 58.62Q285.30 62.49 281.18 64.66L281.18 64.66L291.52 85.06L276.52 85.06L267.98 66.91L256.20 66.91L256.20 85.06ZM256.20 43.74L256.20 56.94L270.07 56.94Q272.85 56.94 274.54 55.10Q276.23 53.26 276.23 50.19L276.23 50.19Q276.23 48.16 275.48 46.74Q274.73 45.31 273.38 44.52Q272.02 43.74 270.07 43.74L270.07 43.74L256.20 43.74Z M318.55 85.06L297.02 85.06L297.02 33.54L318.55 33.54Q326.95 33.54 332.76 36.31Q338.57 39.09 341.61 44.75Q344.65 50.41 344.65 59.26L344.65 59.26Q344.65 68.04 341.61 73.77Q338.57 79.51 332.76 82.29Q326.95 85.06 318.55 85.06L318.55 85.06ZM310.45 44.04L310.45 74.56L318.40 74.56Q321.55 74.56 323.88 73.66Q326.20 72.76 327.77 71.04Q329.35 69.31 330.10 66.76Q330.85 64.21 330.85 60.91L330.85 60.91L330.85 57.76Q330.85 54.39 330.10 51.84Q329.35 49.29 327.77 47.56Q326.20 45.84 323.88 44.94Q321.55 44.04 318.40 44.04L318.40 44.04L310.45 44.04Z"/><path fill="#12B981" d="M364.10 85.06L351.65 85.06L351.65 33.54L363.57 33.54L382.32 57.46Q382.85 58.06 383.71 59.19Q384.57 60.31 385.40 61.47Q386.22 62.64 386.60 63.31L386.60 63.31L386.97 63.24Q386.97 61.59 386.97 60.05Q386.97 58.51 386.97 57.46L386.97 57.46L386.97 33.54L399.42 33.54L399.42 85.06L387.57 85.06L367.70 59.86Q366.72 58.66 365.86 57.39Q365 56.11 364.47 55.29L364.47 55.29L364.10 55.36Q364.10 56.56 364.10 57.80Q364.10 59.04 364.10 59.86L364.10 59.86L364.10 85.06Z M451.87 85.06L408.82 85.06L408.82 33.54L451.35 33.54L451.35 44.04L422.25 44.04L422.25 53.71L447.67 53.71L447.67 63.99L422.25 63.99L422.25 74.56L451.87 74.56L451.87 85.06Z M485.42 85.06L472.00 85.06L472.00 44.56L455.27 44.56L455.27 33.54L502.15 33.54L502.15 44.56L485.42 44.56L485.42 85.06Z"/>
    </g>
  </g>
</svg>